<mxfile host="app.diagrams.net" agent="Mozilla/5.0 (Windows NT 10.0; Win64; x64) AppleWebKit/537.36 (KHTML, like Gecko) Chrome/135.0.0.0 Safari/537.36" version="26.2.13">
  <diagram name="Page-1" id="0783ab3e-0a74-02c8-0abd-f7b4e66b4bec">
    <mxGraphModel dx="536" dy="728" grid="1" gridSize="10" guides="1" tooltips="1" connect="1" arrows="1" fold="1" page="1" pageScale="1" pageWidth="850" pageHeight="1100" background="none" math="0" shadow="0">
      <root>
        <mxCell id="0" />
        <mxCell id="1" parent="0" />
        <mxCell id="x8QZaZsSlO3MQUEWc0BQ-22" value="User" style="swimlane;html=1;startSize=20;" parent="1" vertex="1">
          <mxGeometry x="860" y="30" width="340" height="1010" as="geometry" />
        </mxCell>
        <mxCell id="60571a20871a0731-4" value="" style="ellipse;whiteSpace=wrap;html=1;rounded=0;shadow=0;comic=0;labelBackgroundColor=none;strokeWidth=1;fillColor=#000000;fontFamily=Verdana;fontSize=12;align=center;" parent="x8QZaZsSlO3MQUEWc0BQ-22" vertex="1">
          <mxGeometry x="150" y="30" width="40" height="40" as="geometry" />
        </mxCell>
        <mxCell id="x8QZaZsSlO3MQUEWc0BQ-7" value="Initiate Request" style="rounded=1;whiteSpace=wrap;html=1;" parent="x8QZaZsSlO3MQUEWc0BQ-22" vertex="1">
          <mxGeometry x="112.5" y="110" width="115" height="40" as="geometry" />
        </mxCell>
        <mxCell id="x8QZaZsSlO3MQUEWc0BQ-109" value="" style="endArrow=classic;html=1;rounded=0;fontSize=12;startSize=8;endSize=8;curved=1;entryX=0.5;entryY=0;entryDx=0;entryDy=0;exitX=0.5;exitY=1;exitDx=0;exitDy=0;" parent="x8QZaZsSlO3MQUEWc0BQ-22" source="60571a20871a0731-4" target="x8QZaZsSlO3MQUEWc0BQ-7" edge="1">
          <mxGeometry width="50" height="50" relative="1" as="geometry">
            <mxPoint x="245" y="430" as="sourcePoint" />
            <mxPoint x="295" y="380" as="targetPoint" />
          </mxGeometry>
        </mxCell>
        <mxCell id="60571a20871a0731-5" value="" style="shape=mxgraph.bpmn.shape;html=1;verticalLabelPosition=bottom;labelBackgroundColor=#ffffff;verticalAlign=top;perimeter=ellipsePerimeter;outline=end;symbol=terminate;rounded=0;shadow=0;comic=0;strokeWidth=1;fontFamily=Verdana;fontSize=12;align=center;" parent="x8QZaZsSlO3MQUEWc0BQ-22" vertex="1">
          <mxGeometry x="228.75" y="960" width="40" height="40" as="geometry" />
        </mxCell>
        <mxCell id="12Twaiw8aaEmvn6JQAuP-53" value="" style="edgeStyle=orthogonalEdgeStyle;rounded=0;orthogonalLoop=1;jettySize=auto;html=1;" edge="1" parent="x8QZaZsSlO3MQUEWc0BQ-22" source="12Twaiw8aaEmvn6JQAuP-16" target="60571a20871a0731-5">
          <mxGeometry relative="1" as="geometry" />
        </mxCell>
        <mxCell id="12Twaiw8aaEmvn6JQAuP-16" value="Access Website" style="rounded=1;whiteSpace=wrap;html=1;" vertex="1" parent="x8QZaZsSlO3MQUEWc0BQ-22">
          <mxGeometry x="179.63" y="870" width="140" height="40" as="geometry" />
        </mxCell>
        <mxCell id="x8QZaZsSlO3MQUEWc0BQ-55" style="edgeStyle=none;curved=1;rounded=0;orthogonalLoop=1;jettySize=auto;html=1;fontSize=12;startSize=8;endSize=8;" parent="x8QZaZsSlO3MQUEWc0BQ-22" source="x8QZaZsSlO3MQUEWc0BQ-44" target="x8QZaZsSlO3MQUEWc0BQ-14" edge="1">
          <mxGeometry relative="1" as="geometry" />
        </mxCell>
        <mxCell id="x8QZaZsSlO3MQUEWc0BQ-44" value="Review Result" style="rounded=1;whiteSpace=wrap;html=1;" parent="x8QZaZsSlO3MQUEWc0BQ-22" vertex="1">
          <mxGeometry x="97.03" y="600" width="155.94" height="40" as="geometry" />
        </mxCell>
        <mxCell id="x8QZaZsSlO3MQUEWc0BQ-14" value="" style="rhombus;whiteSpace=wrap;html=1;" parent="x8QZaZsSlO3MQUEWc0BQ-22" vertex="1">
          <mxGeometry x="143.75" y="680" width="62.5" height="60" as="geometry" />
        </mxCell>
        <mxCell id="x8QZaZsSlO3MQUEWc0BQ-56" value="Request Modifications" style="rounded=1;whiteSpace=wrap;html=1;" parent="x8QZaZsSlO3MQUEWc0BQ-22" vertex="1">
          <mxGeometry x="40" y="770" width="120" height="40" as="geometry" />
        </mxCell>
        <mxCell id="x8QZaZsSlO3MQUEWc0BQ-59" value="Deploy Final Version" style="rounded=1;whiteSpace=wrap;html=1;" parent="x8QZaZsSlO3MQUEWc0BQ-22" vertex="1">
          <mxGeometry x="206.25" y="770" width="85" height="40" as="geometry" />
        </mxCell>
        <mxCell id="x8QZaZsSlO3MQUEWc0BQ-103" value="[Satisfied]" style="text;strokeColor=none;align=center;fillColor=none;html=1;verticalAlign=middle;whiteSpace=wrap;rounded=0;fontSize=16;" parent="x8QZaZsSlO3MQUEWc0BQ-22" vertex="1">
          <mxGeometry x="85" y="695" width="40" as="geometry" />
        </mxCell>
        <mxCell id="x8QZaZsSlO3MQUEWc0BQ-106" value="[Not Satisfied]" style="text;strokeColor=none;align=center;fillColor=none;html=1;verticalAlign=middle;whiteSpace=wrap;rounded=0;fontSize=16;" parent="x8QZaZsSlO3MQUEWc0BQ-22" vertex="1">
          <mxGeometry x="225" y="680" width="40" height="15.16" as="geometry" />
        </mxCell>
        <mxCell id="x8QZaZsSlO3MQUEWc0BQ-65" value="" style="endArrow=classic;html=1;rounded=0;fontSize=12;startSize=8;endSize=8;curved=1;entryX=0.5;entryY=0;entryDx=0;entryDy=0;" parent="x8QZaZsSlO3MQUEWc0BQ-22" target="x8QZaZsSlO3MQUEWc0BQ-59" edge="1">
          <mxGeometry width="50" height="50" relative="1" as="geometry">
            <mxPoint x="249" y="710" as="sourcePoint" />
            <mxPoint x="350" y="550" as="targetPoint" />
          </mxGeometry>
        </mxCell>
        <mxCell id="x8QZaZsSlO3MQUEWc0BQ-66" value="" style="endArrow=classic;html=1;rounded=0;fontSize=12;startSize=8;endSize=8;curved=1;entryX=0.5;entryY=0;entryDx=0;entryDy=0;" parent="x8QZaZsSlO3MQUEWc0BQ-22" target="x8QZaZsSlO3MQUEWc0BQ-56" edge="1">
          <mxGeometry width="50" height="50" relative="1" as="geometry">
            <mxPoint x="100" y="710" as="sourcePoint" />
            <mxPoint x="350" y="550" as="targetPoint" />
          </mxGeometry>
        </mxCell>
        <mxCell id="x8QZaZsSlO3MQUEWc0BQ-67" value="" style="endArrow=none;html=1;rounded=0;fontSize=12;startSize=8;endSize=8;curved=1;exitX=1;exitY=0.5;exitDx=0;exitDy=0;" parent="x8QZaZsSlO3MQUEWc0BQ-22" source="x8QZaZsSlO3MQUEWc0BQ-14" edge="1">
          <mxGeometry width="50" height="50" relative="1" as="geometry">
            <mxPoint x="300" y="600" as="sourcePoint" />
            <mxPoint x="250" y="710" as="targetPoint" />
          </mxGeometry>
        </mxCell>
        <mxCell id="x8QZaZsSlO3MQUEWc0BQ-68" value="" style="endArrow=none;html=1;rounded=0;fontSize=12;startSize=8;endSize=8;curved=1;entryX=0;entryY=0.5;entryDx=0;entryDy=0;" parent="x8QZaZsSlO3MQUEWc0BQ-22" target="x8QZaZsSlO3MQUEWc0BQ-14" edge="1">
          <mxGeometry width="50" height="50" relative="1" as="geometry">
            <mxPoint x="100" y="710" as="sourcePoint" />
            <mxPoint x="350" y="550" as="targetPoint" />
          </mxGeometry>
        </mxCell>
        <mxCell id="x8QZaZsSlO3MQUEWc0BQ-91" value="" style="shape=stencil(lZbdUttADIWfxrdnpNX+XlN4D2YIjYc0YUKg5e3R1mOIlkSd3vnv88pHR8c7yc3L9v55MwV6OR0PT5vf88NpO8mPKYR5v90c55MeTXI7yc3j4bj5eTy87h+W8+f7/mQ/+nV462/4s3CNUEKnAr0vV2JCan+v3C3Abt6fAxmlGCAJWnWAhsoGyIKaXSCJAUoEeyUltGyAqis4QG2IFmiMFh1AVbIltYLE14FCyFYlJgLRdSITJNolGtiRKRGq7ZzqQE4jooBtI2oFO4BUkAVK84EMsrrmBhIHKGMjUkV1VIphXCGqW5zO6W1pFggITklaQK4G0CKzs0KuaMkCGSE53lARrZlU6OB8dG+TXUFbGfyBoGFG6V8zykPjCLFcB87c/OkNWoPh8hI6MBbQofJa3UdysGtbX3FZJh36YUg1GJySeqzYkr6i53KrBeXbjFYnBjQa6wBofHozmhCHoVZZHTN1QP4HkDima09Dx0whrm7+BBKyE0yc1rQ+i43ofHRBtW4tDHHaEMYwzrym7cXn1ar2AxKvKXLteWuLSODg1ZNsYgRfUc0TWz831xQcR4GYkZweBxmBBHEmRz0x/Bm0AY6garpBofHfpgdfO47HebdbNizn98cdil5adjdy+wE=);lineShape=1;strokeColor=default;" parent="x8QZaZsSlO3MQUEWc0BQ-22" vertex="1">
          <mxGeometry x="174.92783582370112" y="549.5133648909841" width="0.3183066759793637" height="0.31928313438020034" as="geometry" />
        </mxCell>
        <mxCell id="x8QZaZsSlO3MQUEWc0BQ-92" value="" style="shape=stencil(lZbdUttADIWfxrdnpNX+XlN4D2YIjYc0YUKg5e3R1mOIlkSd3vnv88pHR8c7yc3L9v55MwV6OR0PT5vf88NpO8mPKYR5v90c55MeTXI7yc3j4bj5eTy87h+W8+f7/mQ/+nV462/4s3CNUEKnAr0vV2JCan+v3C3Abt6fAxmlGCAJWnWAhsoGyIKaXSCJAUoEeyUltGyAqis4QG2IFmiMFh1AVbIltYLE14FCyFYlJgLRdSITJNolGtiRKRGq7ZzqQE4jooBtI2oFO4BUkAVK84EMsrrmBhIHKGMjUkV1VIphXCGqW5zO6W1pFggITklaQK4G0CKzs0KuaMkCGSE53lARrZlU6OB8dG+TXUFbGfyBoGFG6V8zykPjCLFcB87c/OkNWoPh8hI6MBbQofJa3UdysGtbX3FZJh36YUg1GJySeqzYkr6i53KrBeXbjFYnBjQa6wBofHozmhCHoVZZHTN1QP4HkDima09Dx0whrm7+BBKyE0yc1rQ+i43ofHRBtW4tDHHaEMYwzrym7cXn1ar2AxKvKXLteWuLSODg1ZNsYgRfUc0TWz831xQcR4GYkZweBxmBBHEmRz0x/Bm0AY6garpBofHfpgdfO47HebdbNizn98cdil5adjdy+wE=);lineShape=1;strokeColor=default;" parent="x8QZaZsSlO3MQUEWc0BQ-22" vertex="1">
          <mxGeometry x="175.77172798153333" y="549.597747925992" width="0.3183066759793637" height="0.31928313438020034" as="geometry" />
        </mxCell>
        <mxCell id="x8QZaZsSlO3MQUEWc0BQ-93" value="" style="shape=stencil(lZbdUttADIWfxrdnpNX+XlN4D2YIjYc0YUKg5e3R1mOIlkSd3vnv88pHR8c7yc3L9v55MwV6OR0PT5vf88NpO8mPKYR5v90c55MeTXI7yc3j4bj5eTy87h+W8+f7/mQ/+nV462/4s3CNUEKnAr0vV2JCan+v3C3Abt6fAxmlGCAJWnWAhsoGyIKaXSCJAUoEeyUltGyAqis4QG2IFmiMFh1AVbIltYLE14FCyFYlJgLRdSITJNolGtiRKRGq7ZzqQE4jooBtI2oFO4BUkAVK84EMsrrmBhIHKGMjUkV1VIphXCGqW5zO6W1pFggITklaQK4G0CKzs0KuaMkCGSE53lARrZlU6OB8dG+TXUFbGfyBoGFG6V8zykPjCLFcB87c/OkNWoPh8hI6MBbQofJa3UdysGtbX3FZJh36YUg1GJySeqzYkr6i53KrBeXbjFYnBjQa6wBofHozmhCHoVZZHTN1QP4HkDima09Dx0whrm7+BBKyE0yc1rQ+i43ofHRBtW4tDHHaEMYwzrym7cXn1ar2AxKvKXLteWuLSODg1ZNsYgRfUc0TWz831xQcR4GYkZweBxmBBHEmRz0x/Bm0AY6garpBofHfpgdfO47HebdbNizn98cdil5adjdy+wE=);lineShape=1;strokeColor=default;" parent="x8QZaZsSlO3MQUEWc0BQ-22" vertex="1">
          <mxGeometry x="176.69998772243525" y="549.597747925992" width="0.3183066759793637" height="0.31928313438020034" as="geometry" />
        </mxCell>
        <mxCell id="x8QZaZsSlO3MQUEWc0BQ-94" value="" style="shape=stencil(rVbZbsIwEPyavK5sr89n2v4HElCiUkBAr7/vpqlpHJNBkfrmODvrnT3Gbnhx3i6P68ao8+V0eFl/tKvLtuGHxph2v12f2ousGn5seLE5nNbPp8PbftV/H5edZbd6Pbx3Hj57nGZi1aGM+vrdoeh+Np56+127H9izI+XG9nraPnrSurBXpNS0fVLkSv+GvAH2lhyX8Sgy6ICQ/V0P0JQsACRyJQP25HkaoNWVYkY4QwEkSY5QJQkf86G3AT77y4BoiAMAMJlYAJKhCFjHRLrkkCJFwDpa8mVIwgqRjlKnUAIccZwGBE/OlqR9bt7bAKZYllp2LAgpmBzAtXCRFAqpAlhpplkhGWEFCteRHs0bk09z0mrhANV1EwfIf9UYmvSszguk/ZzW1jKxeD5Hw8OaHKjBjfm0gRjP50gCvMgmSFItMkEaCWWpkjHJM9LVWiflTBRSLcSDPPwTor4cRDQ0CKq+fToAuH5E3FUqAdIvABBy2ge6h7rJZoEYaIwC9mY8bUHKAOJRFEp7H2Bj1FeJowhKULe2hRWo4mFDCchFxdfczWc5CFLyNKdekk6gFnU/iNyAcOY+d+7by+LvbbVpd7v+aTb8P36LyVb/juPHbw==);lineShape=1;strokeColor=default;" parent="x8QZaZsSlO3MQUEWc0BQ-22" vertex="1">
          <mxGeometry x="177.33079372065185" y="549.6340278959036" width="0.7807377753614893" height="0.21719687828765386" as="geometry" />
        </mxCell>
        <mxCell id="x8QZaZsSlO3MQUEWc0BQ-95" value="" style="shape=stencil(lZbdUttADIWfxrdnpNX+XlN4D2YIjYc0YUKg5e3R1mOIlkSd3vnv88pHR8c7yc3L9v55MwV6OR0PT5vf88NpO8mPKYR5v90c55MeTXI7yc3j4bj5eTy87h+W8+f7/mQ/+nV462/4s3CNUEKnAr0vV2JCan+v3C3Abt6fAxmlGCAJWnWAhsoGyIKaXSCJAUoEeyUltGyAqis4QG2IFmiMFh1AVbIltYLE14FCyFYlJgLRdSITJNolGtiRKRGq7ZzqQE4jooBtI2oFO4BUkAVK84EMsrrmBhIHKGMjUkV1VIphXCGqW5zO6W1pFggITklaQK4G0CKzs0KuaMkCGSE53lARrZlU6OB8dG+TXUFbGfyBoGFG6V8zykPjCLFcB87c/OkNWoPh8hI6MBbQofJa3UdysGtbX3FZJh36YUg1GJySeqzYkr6i53KrBeXbjFYnBjQa6wBofHozmhCHoVZZHTN1QP4HkDima09Dx0whrm7+BBKyE0yc1rQ+i43ofHRBtW4tDHHaEMYwzrym7cXn1ar2AxKvKXLteWuLSODg1ZNsYgRfUc0TWz831xQcR4GYkZweBxmBBHEmRz0x/Bm0AY6garpBofHfpgdfO47HebdbNizn98cdil5adjdy+wE=);lineShape=1;strokeColor=default;" parent="x8QZaZsSlO3MQUEWc0BQ-22" vertex="1">
          <mxGeometry x="177.96581050724535" y="549.597747925992" width="0.3183066759793637" height="0.31928313438020034" as="geometry" />
        </mxCell>
        <mxCell id="x8QZaZsSlO3MQUEWc0BQ-96" value="" style="shape=stencil(lZbdUttADIWfxrdnpNX+XlN4D2YIjYc0YUKg5e3R1mOIlkSd3vnv88pHR8c7yc3L9v55MwV6OR0PT5vf88NpO8mPKYR5v90c55MeTXI7yc3j4bj5eTy87h+W8+f7/mQ/+nV462/4s3CNUEKnAr0vV2JCan+v3C3Abt6fAxmlGCAJWnWAhsoGyIKaXSCJAUoEeyUltGyAqis4QG2IFmiMFh1AVbIltYLE14FCyFYlJgLRdSITJNolGtiRKRGq7ZzqQE4jooBtI2oFO4BUkAVK84EMsrrmBhIHKGMjUkV1VIphXCGqW5zO6W1pFggITklaQK4G0CKzs0KuaMkCGSE53lARrZlU6OB8dG+TXUFbGfyBoGFG6V8zykPjCLFcB87c/OkNWoPh8hI6MBbQofJa3UdysGtbX3FZJh36YUg1GJySeqzYkr6i53KrBeXbjFYnBjQa6wBofHozmhCHoVZZHTN1QP4HkDima09Dx0whrm7+BBKyE0yc1rQ+i43ofHRBtW4tDHHaEMYwzrym7cXn1ar2AxKvKXLteWuLSODg1ZNsYgRfUc0TWz831xQcR4GYkZweBxmBBHEmRz0x/Bm0AY6garpBofHfpgdfO47HebdbNizn98cdil5adjdy+wE=);lineShape=1;strokeColor=default;" parent="x8QZaZsSlO3MQUEWc0BQ-22" vertex="1">
          <mxGeometry x="178.7253041781314" y="549.6821386869691" width="0.3183066759793637" height="0.31928313438020034" as="geometry" />
        </mxCell>
        <mxCell id="x8QZaZsSlO3MQUEWc0BQ-97" value="" style="shape=stencil(lZbdUttADIWfxrdnpNX+XlN4D2YIjYc0YUKg5e3R1mOIlkSd3vnv88pHR8c7yc3L9v55MwV6OR0PT5vf88NpO8mPKYR5v90c55MeTXI7yc3j4bj5eTy87h+W8+f7/mQ/+nV462/4s3CNUEKnAr0vV2JCan+v3C3Abt6fAxmlGCAJWnWAhsoGyIKaXSCJAUoEeyUltGyAqis4QG2IFmiMFh1AVbIltYLE14FCyFYlJgLRdSITJNolGtiRKRGq7ZzqQE4jooBtI2oFO4BUkAVK84EMsrrmBhIHKGMjUkV1VIphXCGqW5zO6W1pFggITklaQK4G0CKzs0KuaMkCGSE53lARrZlU6OB8dG+TXUFbGfyBoGFG6V8zykPjCLFcB87c/OkNWoPh8hI6MBbQofJa3UdysGtbX3FZJh36YUg1GJySeqzYkr6i53KrBeXbjFYnBjQa6wBofHozmhCHoVZZHTN1QP4HkDima09Dx0whrm7+BBKyE0yc1rQ+i43ofHRBtW4tDHHaEMYwzrym7cXn1ar2AxKvKXLteWuLSODg1ZNsYgRfUc0TWz831xQcR4GYkZweBxmBBHEmRz0x/Bm0AY6garpBofHfpgdfO47HebdbNizn98cdil5adjdy+wE=);lineShape=1;strokeColor=default;" parent="x8QZaZsSlO3MQUEWc0BQ-22" vertex="1">
          <mxGeometry x="179.3160317790016" y="549.597747925992" width="0.3183066759793637" height="0.31928313438020034" as="geometry" />
        </mxCell>
        <mxCell id="12Twaiw8aaEmvn6JQAuP-44" value="" style="edgeStyle=orthogonalEdgeStyle;rounded=0;orthogonalLoop=1;jettySize=auto;html=1;" edge="1" parent="x8QZaZsSlO3MQUEWc0BQ-22" source="x8QZaZsSlO3MQUEWc0BQ-59" target="12Twaiw8aaEmvn6JQAuP-16">
          <mxGeometry relative="1" as="geometry" />
        </mxCell>
        <mxCell id="x8QZaZsSlO3MQUEWc0BQ-32" value="eNigma" style="swimlane;html=1;startSize=20;" parent="1" vertex="1">
          <mxGeometry x="1200" y="30" width="300" height="1010" as="geometry" />
        </mxCell>
        <mxCell id="12Twaiw8aaEmvn6JQAuP-17" value="" style="edgeStyle=orthogonalEdgeStyle;rounded=0;orthogonalLoop=1;jettySize=auto;html=1;" edge="1" parent="x8QZaZsSlO3MQUEWc0BQ-32" source="x8QZaZsSlO3MQUEWc0BQ-10" target="x8QZaZsSlO3MQUEWc0BQ-9">
          <mxGeometry relative="1" as="geometry" />
        </mxCell>
        <mxCell id="x8QZaZsSlO3MQUEWc0BQ-10" value="Identify Workflow" style="rounded=1;whiteSpace=wrap;html=1;" parent="x8QZaZsSlO3MQUEWc0BQ-32" vertex="1">
          <mxGeometry x="42.5" y="110" width="215" height="40" as="geometry" />
        </mxCell>
        <mxCell id="x8QZaZsSlO3MQUEWc0BQ-9" value="Trigger Orchestration" style="rounded=1;whiteSpace=wrap;html=1;" parent="x8QZaZsSlO3MQUEWc0BQ-32" vertex="1">
          <mxGeometry x="70" y="190" width="160" height="40" as="geometry" />
        </mxCell>
        <mxCell id="x8QZaZsSlO3MQUEWc0BQ-43" value="Deploy Website Preview" style="rounded=1;whiteSpace=wrap;html=1;" parent="x8QZaZsSlO3MQUEWc0BQ-32" vertex="1">
          <mxGeometry x="40" y="530" width="160" height="40" as="geometry" />
        </mxCell>
        <mxCell id="x8QZaZsSlO3MQUEWc0BQ-45" value="" style="edgeStyle=none;curved=1;rounded=0;orthogonalLoop=1;jettySize=auto;html=1;fontSize=12;startSize=8;endSize=8;" parent="1" source="x8QZaZsSlO3MQUEWc0BQ-7" target="x8QZaZsSlO3MQUEWc0BQ-10" edge="1">
          <mxGeometry relative="1" as="geometry" />
        </mxCell>
        <mxCell id="x8QZaZsSlO3MQUEWc0BQ-101" style="edgeStyle=none;curved=1;rounded=0;orthogonalLoop=1;jettySize=auto;html=1;exitX=0.25;exitY=0;exitDx=0;exitDy=0;fontSize=12;startSize=8;endSize=8;" parent="1" source="x8QZaZsSlO3MQUEWc0BQ-32" target="x8QZaZsSlO3MQUEWc0BQ-32" edge="1">
          <mxGeometry relative="1" as="geometry" />
        </mxCell>
        <mxCell id="12Twaiw8aaEmvn6JQAuP-9" value="Execution Engine" style="swimlane;html=1;startSize=20;" vertex="1" parent="1">
          <mxGeometry x="1500" y="30" width="290" height="1010" as="geometry" />
        </mxCell>
        <mxCell id="12Twaiw8aaEmvn6JQAuP-30" value="" style="edgeStyle=orthogonalEdgeStyle;rounded=0;orthogonalLoop=1;jettySize=auto;html=1;" edge="1" parent="12Twaiw8aaEmvn6JQAuP-9" source="12Twaiw8aaEmvn6JQAuP-12" target="12Twaiw8aaEmvn6JQAuP-21">
          <mxGeometry relative="1" as="geometry" />
        </mxCell>
        <mxCell id="12Twaiw8aaEmvn6JQAuP-12" value="Process through Agent Pipeline" style="rounded=1;whiteSpace=wrap;html=1;" vertex="1" parent="12Twaiw8aaEmvn6JQAuP-9">
          <mxGeometry x="50" y="190" width="180" height="40" as="geometry" />
        </mxCell>
        <mxCell id="12Twaiw8aaEmvn6JQAuP-47" style="edgeStyle=orthogonalEdgeStyle;rounded=0;orthogonalLoop=1;jettySize=auto;html=1;" edge="1" parent="12Twaiw8aaEmvn6JQAuP-9" source="12Twaiw8aaEmvn6JQAuP-21" target="12Twaiw8aaEmvn6JQAuP-23">
          <mxGeometry relative="1" as="geometry" />
        </mxCell>
        <mxCell id="12Twaiw8aaEmvn6JQAuP-21" value="" style="rhombus;whiteSpace=wrap;html=1;" vertex="1" parent="12Twaiw8aaEmvn6JQAuP-9">
          <mxGeometry x="108.75" y="300" width="62.5" height="60" as="geometry" />
        </mxCell>
        <mxCell id="12Twaiw8aaEmvn6JQAuP-32" style="edgeStyle=orthogonalEdgeStyle;rounded=0;orthogonalLoop=1;jettySize=auto;html=1;entryX=1;entryY=0.5;entryDx=0;entryDy=0;exitX=0.5;exitY=1;exitDx=0;exitDy=0;" edge="1" parent="12Twaiw8aaEmvn6JQAuP-9" source="12Twaiw8aaEmvn6JQAuP-23" target="12Twaiw8aaEmvn6JQAuP-31">
          <mxGeometry relative="1" as="geometry" />
        </mxCell>
        <mxCell id="12Twaiw8aaEmvn6JQAuP-23" value="Apply Fallbacks" style="rounded=1;whiteSpace=wrap;html=1;" vertex="1" parent="12Twaiw8aaEmvn6JQAuP-9">
          <mxGeometry x="182.5" y="380" width="85" height="40" as="geometry" />
        </mxCell>
        <mxCell id="12Twaiw8aaEmvn6JQAuP-24" value="[Successful]" style="text;strokeColor=none;align=center;fillColor=none;html=1;verticalAlign=middle;whiteSpace=wrap;rounded=0;fontSize=16;" vertex="1" parent="12Twaiw8aaEmvn6JQAuP-9">
          <mxGeometry x="42.5" y="315" width="40" as="geometry" />
        </mxCell>
        <mxCell id="12Twaiw8aaEmvn6JQAuP-25" value="[Unsuccessful]" style="text;strokeColor=none;align=center;fillColor=none;html=1;verticalAlign=middle;whiteSpace=wrap;rounded=0;fontSize=16;" vertex="1" parent="12Twaiw8aaEmvn6JQAuP-9">
          <mxGeometry x="202.5" y="307.42" width="40" height="15.16" as="geometry" />
        </mxCell>
        <mxCell id="12Twaiw8aaEmvn6JQAuP-52" style="edgeStyle=orthogonalEdgeStyle;rounded=0;orthogonalLoop=1;jettySize=auto;html=1;" edge="1" parent="12Twaiw8aaEmvn6JQAuP-9" source="12Twaiw8aaEmvn6JQAuP-31">
          <mxGeometry relative="1" as="geometry">
            <mxPoint x="60" y="550" as="targetPoint" />
            <Array as="points">
              <mxPoint x="140" y="550" />
            </Array>
          </mxGeometry>
        </mxCell>
        <mxCell id="12Twaiw8aaEmvn6JQAuP-31" value="" style="rhombus;whiteSpace=wrap;html=1;" vertex="1" parent="12Twaiw8aaEmvn6JQAuP-9">
          <mxGeometry x="108.75" y="430" width="62.5" height="60" as="geometry" />
        </mxCell>
        <mxCell id="12Twaiw8aaEmvn6JQAuP-34" value="" style="endArrow=none;html=1;rounded=0;entryX=0;entryY=0.5;entryDx=0;entryDy=0;" edge="1" parent="12Twaiw8aaEmvn6JQAuP-9" target="12Twaiw8aaEmvn6JQAuP-21">
          <mxGeometry width="50" height="50" relative="1" as="geometry">
            <mxPoint x="72.5" y="330" as="sourcePoint" />
            <mxPoint x="-207.5" y="380" as="targetPoint" />
          </mxGeometry>
        </mxCell>
        <mxCell id="12Twaiw8aaEmvn6JQAuP-35" value="" style="endArrow=classic;html=1;rounded=0;edgeStyle=orthogonalEdgeStyle;entryX=0;entryY=0.5;entryDx=0;entryDy=0;" edge="1" parent="12Twaiw8aaEmvn6JQAuP-9" target="12Twaiw8aaEmvn6JQAuP-31">
          <mxGeometry width="50" height="50" relative="1" as="geometry">
            <mxPoint x="72.5" y="330" as="sourcePoint" />
            <mxPoint x="42.5" y="510" as="targetPoint" />
            <Array as="points">
              <mxPoint x="52.5" y="330" />
              <mxPoint x="52.5" y="460" />
            </Array>
          </mxGeometry>
        </mxCell>
        <mxCell id="12Twaiw8aaEmvn6JQAuP-38" value="Website Preview" style="rounded=0;whiteSpace=wrap;html=1;" vertex="1" parent="12Twaiw8aaEmvn6JQAuP-9">
          <mxGeometry x="-60" y="520" width="120" height="60" as="geometry" />
        </mxCell>
        <mxCell id="12Twaiw8aaEmvn6JQAuP-20" value="" style="edgeStyle=orthogonalEdgeStyle;rounded=0;orthogonalLoop=1;jettySize=auto;html=1;" edge="1" parent="1" source="x8QZaZsSlO3MQUEWc0BQ-9" target="12Twaiw8aaEmvn6JQAuP-12">
          <mxGeometry relative="1" as="geometry" />
        </mxCell>
        <mxCell id="12Twaiw8aaEmvn6JQAuP-45" style="edgeStyle=orthogonalEdgeStyle;rounded=0;orthogonalLoop=1;jettySize=auto;html=1;entryX=0.5;entryY=0;entryDx=0;entryDy=0;" edge="1" parent="1" source="x8QZaZsSlO3MQUEWc0BQ-43" target="x8QZaZsSlO3MQUEWc0BQ-44">
          <mxGeometry relative="1" as="geometry" />
        </mxCell>
        <mxCell id="12Twaiw8aaEmvn6JQAuP-41" style="edgeStyle=orthogonalEdgeStyle;rounded=0;orthogonalLoop=1;jettySize=auto;html=1;entryX=0;entryY=0.5;entryDx=0;entryDy=0;exitX=0;exitY=0.5;exitDx=0;exitDy=0;" edge="1" parent="1" source="x8QZaZsSlO3MQUEWc0BQ-56" target="x8QZaZsSlO3MQUEWc0BQ-9">
          <mxGeometry relative="1" as="geometry">
            <mxPoint x="890" y="820" as="sourcePoint" />
            <mxPoint x="1210" y="230" as="targetPoint" />
            <Array as="points">
              <mxPoint x="880" y="820" />
              <mxPoint x="880" y="240" />
            </Array>
          </mxGeometry>
        </mxCell>
        <mxCell id="12Twaiw8aaEmvn6JQAuP-40" value="" style="edgeStyle=orthogonalEdgeStyle;rounded=0;orthogonalLoop=1;jettySize=auto;html=1;" edge="1" parent="1" source="12Twaiw8aaEmvn6JQAuP-38" target="x8QZaZsSlO3MQUEWc0BQ-43">
          <mxGeometry relative="1" as="geometry" />
        </mxCell>
      </root>
    </mxGraphModel>
  </diagram>
</mxfile>
